<?xml version="1.0" standalone="no"?>
<!DOCTYPE svg PUBLIC "-//W3C//DTD SVG 20010904//EN"
 "http://www.w3.org/TR/2001/REC-SVG-20010904/DTD/svg10.dtd">
<svg version="1.0" xmlns="http://www.w3.org/2000/svg"
 width="312.000000pt" height="235.000000pt" viewBox="0 0 312.000000 235.000000"
 preserveAspectRatio="xMidYMid meet">

<g transform="translate(0.000000,235.000000) scale(0.100000,-0.100000)"
fill="#000000" stroke="none">
<path d="M1545 1715 c0 -297 1 -417 2 -267 2 150 2 393 0 540 -1 147 -2 24 -2
-273z"/>
<path d="M725 1950 c-33 -4 -117 -8 -187 -9 -121 -1 -163 -11 -98 -24 67 -14
80 -89 80 -464 l0 -273 50 0 c49 0 50 1 50 30 0 17 4 30 8 30 5 0 44 -9 86
-20 214 -55 376 -27 496 86 86 81 129 212 109 337 -25 158 -119 262 -274 303
-53 15 -218 16 -320 4z m311 -50 c243 -124 244 -513 3 -645 -45 -24 -69 -30
-142 -33 -83 -4 -172 7 -244 29 l-33 11 0 318 c0 225 3 321 11 326 36 22 114
33 220 31 111 -2 119 -4 185 -37z"/>
<path d="M1800 1931 c0 -5 13 -11 30 -14 67 -14 80 -89 80 -464 l0 -273 50 0
50 0 0 91 c0 102 7 121 50 139 40 17 80 7 149 -34 60 -36 147 -66 193 -66 68
0 136 48 151 108 6 26 -9 30 -18 4 -7 -24 -46 -42 -90 -42 -19 0 -78 16 -131
35 -115 42 -188 46 -249 15 -22 -11 -43 -20 -47 -20 -5 0 -7 114 -6 253 l3
252 175 3 c200 3 302 -12 390 -55 39 -20 60 -38 72 -62 22 -45 30 -26 26 65
l-3 69 -437 3 c-250 1 -438 -2 -438 -7z"/>
<path d="M48 1134 c-12 -11 -10 -134 2 -134 6 0 10 9 10 20 0 15 7 20 29 20
50 0 81 51 47 79 -18 15 -79 25 -88 15z m77 -44 c0 -21 -5 -26 -32 -28 -31 -3
-33 -1 -33 28 0 29 2 31 33 28 27 -2 32 -7 32 -28z"/>
<path d="M677 1134 c-4 -4 -7 -36 -7 -71 l0 -63 38 0 c52 0 82 23 82 64 0 19
-8 40 -17 49 -21 18 -85 32 -96 21z m85 -31 c10 -9 18 -24 18 -35 0 -28 -36
-58 -70 -58 -30 0 -30 1 -30 55 l0 55 32 0 c17 0 40 -7 50 -17z"/>
<path d="M990 1130 c0 -5 9 -10 20 -10 18 0 20 -7 20 -60 0 -33 4 -60 10 -60
6 0 10 27 10 60 0 53 2 60 20 60 11 0 20 5 20 10 0 6 -22 10 -50 10 -27 0 -50
-4 -50 -10z"/>
<path d="M1297 1133 c-4 -3 -7 -35 -7 -70 l0 -63 53 2 c50 1 50 2 10 5 -38 4
-43 7 -43 29 0 21 5 24 38 25 l37 2 -35 6 c-26 4 -36 12 -38 29 -3 19 1 22 32
22 20 0 36 5 36 10 0 11 -73 14 -83 3z"/>
<path d="M1685 1130 c-3 -6 5 -10 19 -10 24 0 25 -3 29 -62 l3 -63 2 63 c2 59
3 62 27 62 14 0 25 5 25 10 0 6 -22 10 -49 10 -28 0 -53 -4 -56 -10z"/>
<path d="M1887 1133 c-4 -3 -7 -35 -7 -70 l0 -63 48 2 47 1 -42 4 c-38 4 -43
7 -43 29 0 21 5 24 38 25 l37 2 -35 6 c-26 4 -36 12 -38 29 -3 20 1 22 38 22
25 0 39 4 35 10 -7 11 -68 14 -78 3z"/>
<path d="M2077 1133 c-4 -3 -6 -36 -6 -72 1 -36 4 -56 6 -43 6 29 39 29 70 0
23 -22 33 -12 11 10 -9 9 -9 15 0 24 7 7 12 25 12 40 0 21 -6 31 -26 38 -29
12 -58 13 -67 3z m78 -43 c0 -22 -5 -25 -37 -28 -36 -3 -38 -2 -38 28 0 30 2
31 38 28 32 -3 37 -6 37 -28z"/>
<path d="M2277 1133 c-4 -3 -6 -36 -6 -72 1 -36 4 -56 6 -43 3 16 11 22 29 22
42 0 64 18 64 51 0 22 -6 32 -26 39 -29 12 -58 13 -67 3z m78 -43 c0 -22 -5
-25 -37 -28 -36 -3 -38 -2 -38 28 0 30 2 31 38 28 32 -3 37 -6 37 -28z"/>
<path d="M2477 1133 c-11 -10 -8 -133 3 -133 6 0 10 9 10 20 0 14 7 20 23 20
12 0 28 -9 35 -20 7 -11 17 -20 24 -20 6 0 3 9 -7 20 -17 19 -17 21 -1 39 23
25 13 59 -21 72 -29 11 -57 12 -66 2z m78 -43 c0 -21 -5 -26 -32 -28 -31 -3
-33 -1 -33 28 0 29 2 31 33 28 27 -2 32 -7 32 -28z"/>
<path d="M2808 1133 c-19 -5 -33 -37 -23 -53 3 -5 20 -13 38 -18 22 -6 32 -14
32 -28 0 -16 -6 -19 -38 -17 -23 2 -35 -1 -32 -7 10 -16 71 -11 86 6 18 21 1
46 -40 58 -20 6 -31 15 -31 27 0 15 8 19 38 19 27 0 33 3 22 10 -16 10 -24 11
-52 3z"/>
<path d="M2977 1133 c-4 -3 -7 -35 -7 -70 l0 -63 53 2 c50 1 50 2 10 5 -38 4
-43 7 -43 29 0 21 5 24 38 25 l37 2 -35 6 c-26 4 -36 12 -38 29 -3 19 1 22 32
22 20 0 36 5 36 10 0 11 -73 14 -83 3z"/>
<path d="M255 1069 c-15 -33 -25 -63 -22 -66 3 -2 10 5 17 16 15 29 76 30 85
1 6 -18 25 -29 25 -15 0 14 -61 125 -69 125 -4 0 -21 -27 -36 -61z m65 -11 c0
-5 -14 -8 -30 -8 l-31 0 17 32 16 32 14 -25 c7 -13 13 -27 14 -31z"/>
<path d="M452 1063 l1 -68 6 55 6 54 40 -52 c21 -29 43 -52 47 -52 4 0 8 29 8
65 0 74 -17 89 -22 18 l-3 -47 -35 47 c-19 25 -38 47 -42 47 -5 0 -7 -30 -6
-67z"/>
<path d="M893 1065 c0 -38 2 -53 4 -32 2 20 2 52 0 70 -2 17 -4 1 -4 -38z"/>
<path d="M1480 1065 c0 -77 18 -88 22 -14 l3 50 39 -50 c21 -28 42 -51 47 -51
5 0 9 29 9 65 0 37 -4 65 -10 65 -5 0 -10 -21 -10 -47 l-1 -48 -40 48 c-23 26
-45 47 -50 47 -5 0 -9 -29 -9 -65z"/>
<path d="M2670 1065 c0 -37 4 -65 10 -65 6 0 10 28 10 65 0 37 -4 65 -10 65
-6 0 -10 -28 -10 -65z"/>
<path d="M520 938 c-2 -55 -21 -153 -34 -173 -9 -14 -31 -32 -49 -39 -29 -13
-17 -14 138 -14 147 0 165 1 136 12 -50 18 -71 52 -77 122 -9 106 -8 104 -64
104 -33 0 -50 -4 -50 -12z"/>
<path d="M1544 733 l1 -222 -127 -3 -127 -3 122 -213 c67 -116 124 -212 128
-212 6 0 249 416 249 426 0 2 -52 4 -115 4 l-115 0 -1 123 c-1 67 -5 167 -9
222 -6 79 -8 53 -6 -122z"/>
<path d="M1910 938 c-2 -55 -21 -153 -34 -173 -9 -14 -31 -32 -49 -39 -28 -13
21 -14 411 -15 l442 -1 0 94 c0 53 -4 98 -10 101 -5 3 -10 -3 -10 -14 0 -32
-55 -86 -111 -110 -85 -37 -191 -53 -369 -54 l-165 -2 -3 113 -3 112 -49 0
c-33 0 -50 -4 -50 -12z"/>
</g>
</svg>
