<?xml version="1.0" standalone="no"?>
<!DOCTYPE svg PUBLIC "-//W3C//DTD SVG 20010904//EN"
 "http://www.w3.org/TR/2001/REC-SVG-20010904/DTD/svg10.dtd">
<svg version="1.0" xmlns="http://www.w3.org/2000/svg"
 width="500.000000pt" height="500.000000pt" viewBox="0 0 500.000000 500.000000"
 preserveAspectRatio="xMidYMid meet">

<g transform="translate(0.000000,500.000000) scale(0.100000,-0.100000)"
fill="#000000" stroke="none">
<path d="M2505 3035 c0 -297 1 -417 2 -267 2 150 2 393 0 540 -1 147 -2 24 -2
-273z"/>
<path d="M1680 3270 c-36 -4 -120 -8 -187 -9 -117 -1 -157 -12 -93 -24 16 -4
36 -17 45 -30 24 -38 35 -170 35 -449 l0 -258 50 0 50 0 0 34 0 34 59 -19
c274 -85 507 -16 603 179 31 63 33 73 33 177 0 98 -3 116 -26 165 -35 75 -98
136 -177 173 -63 30 -74 32 -197 33 -71 1 -159 -1 -195 -6z m312 -48 c103 -50
159 -131 180 -255 13 -78 0 -163 -35 -241 -54 -117 -143 -176 -277 -184 -76
-4 -182 8 -247 29 l-33 11 0 324 c0 178 3 324 8 324 4 1 30 7 57 15 33 10 88
14 165 12 108 -2 120 -4 182 -35z"/>
<path d="M2760 3251 c0 -5 13 -11 30 -14 16 -4 36 -17 45 -30 24 -38 35 -170
35 -449 l0 -258 50 0 50 0 0 98 c0 88 2 101 21 118 36 32 103 25 176 -19 140
-84 276 -83 327 3 9 16 16 39 15 52 0 23 0 23 -9 2 -25 -63 -90 -68 -226 -19
-122 44 -197 47 -262 10 l-42 -24 2 262 3 262 65 3 c36 2 133 -1 216 -7 215
-15 329 -54 359 -124 14 -31 14 -28 15 56 l0 87 -435 0 c-242 0 -435 -4 -435
-9z"/>
<path d="M1008 2454 c-12 -11 -10 -134 2 -134 6 0 10 9 10 20 0 14 7 20 23 20
51 0 86 52 53 79 -18 15 -79 25 -88 15z m77 -44 c0 -21 -5 -26 -32 -28 -31 -3
-33 -1 -33 28 0 29 2 31 33 28 27 -2 32 -7 32 -28z"/>
<path d="M1244 2449 c-21 -34 -62 -129 -56 -129 4 0 13 9 20 20 8 14 23 20 46
20 26 0 36 -5 41 -20 3 -11 11 -20 16 -20 10 0 -4 38 -38 104 -15 30 -22 36
-29 25z m36 -71 c0 -5 -14 -8 -30 -8 l-31 0 17 32 16 32 14 -25 c7 -13 13 -27
14 -31z"/>
<path d="M1407 2454 c-11 -11 -8 -134 2 -134 6 0 11 23 13 52 l3 52 40 -52
c21 -29 43 -52 47 -52 4 0 8 29 8 65 0 37 -4 65 -10 65 -5 0 -10 -21 -10 -47
l-1 -48 -22 25 c-12 14 -31 38 -42 53 -11 16 -24 25 -28 21z"/>
<path d="M1628 2454 c-5 -4 -8 -36 -8 -71 l0 -63 45 0 c32 0 51 6 65 20 25 25
26 72 1 94 -21 19 -91 33 -103 20z m96 -36 c9 -12 16 -28 16 -35 0 -23 -39
-53 -70 -53 -30 0 -30 1 -30 55 l0 55 34 0 c25 0 39 -7 50 -22z"/>
<path d="M1847 2453 c-11 -10 -8 -133 3 -133 6 0 10 30 10 70 0 70 -1 76 -13
63z"/>
<path d="M1945 2450 c-4 -6 5 -10 19 -10 25 0 26 -2 26 -60 0 -33 4 -60 10
-60 6 0 10 27 10 60 0 53 2 60 20 60 11 0 20 5 20 10 0 6 -22 10 -49 10 -28 0
-53 -4 -56 -10z"/>
<path d="M2257 2453 c-4 -3 -7 -35 -7 -70 l0 -63 53 2 c50 1 50 2 10 5 -38 4
-43 7 -43 29 0 21 5 24 36 24 21 0 33 4 29 10 -3 6 -19 10 -36 10 -22 0 -29 5
-29 20 0 16 7 20 35 20 19 0 35 5 35 10 0 11 -73 14 -83 3z"/>
<path d="M2540 2404 l0 -57 -41 52 c-22 28 -45 51 -50 51 -5 0 -9 -29 -9 -65
0 -77 18 -88 22 -14 l3 50 39 -50 c21 -28 42 -51 47 -51 12 0 11 127 -1 135
-6 4 -10 -15 -10 -51z"/>
<path d="M2640 2450 c0 -5 11 -10 25 -10 23 0 24 -4 28 -62 l3 -63 2 63 c2 59
3 62 27 62 14 0 25 5 25 10 0 6 -25 10 -55 10 -30 0 -55 -4 -55 -10z"/>
<path d="M2837 2453 c-4 -3 -7 -35 -7 -70 l0 -63 53 2 c50 1 50 2 10 5 -38 4
-43 7 -43 29 0 21 5 24 36 24 21 0 33 4 29 10 -3 6 -19 10 -36 10 -22 0 -29 5
-29 20 0 17 7 20 41 20 24 0 38 4 34 10 -7 11 -78 14 -88 3z"/>
<path d="M3031 2388 c1 -40 4 -63 6 -50 6 29 39 29 70 0 23 -22 33 -12 11 10
-9 9 -9 15 0 24 7 7 12 25 12 40 0 31 -28 48 -76 48 -23 0 -24 -2 -23 -72z
m84 32 c9 -29 -2 -40 -41 -40 -31 0 -34 2 -34 30 0 28 3 30 34 30 26 0 36 -5
41 -20z"/>
<path d="M3231 2388 c1 -40 4 -63 6 -50 3 16 11 22 29 22 42 0 64 18 64 51 0
32 -27 49 -76 49 -23 0 -24 -2 -23 -72z m84 32 c9 -29 -2 -40 -41 -40 -31 0
-34 2 -34 30 0 28 3 30 34 30 26 0 36 -5 41 -20z"/>
<path d="M3431 2388 c1 -40 4 -63 6 -50 6 30 53 31 71 1 7 -12 16 -18 19 -15
3 3 0 12 -6 20 -10 12 -9 20 4 39 27 41 -6 77 -71 77 -23 0 -24 -2 -23 -72z
m84 22 c0 -22 -5 -25 -37 -28 -36 -3 -38 -2 -38 28 0 30 2 31 38 28 32 -3 37
-6 37 -28z"/>
<path d="M3633 2390 c0 -41 2 -58 4 -37 2 20 2 54 0 75 -2 20 -4 3 -4 -38z"/>
<path d="M3756 2447 c-28 -20 -16 -50 24 -63 38 -12 52 -40 25 -50 -9 -4 -28
-1 -42 5 -19 9 -24 9 -21 -1 3 -7 20 -14 40 -16 69 -6 77 53 9 72 -20 6 -31
15 -31 27 0 15 8 19 38 19 27 0 33 3 22 10 -21 13 -43 12 -64 -3z"/>
<path d="M3937 2453 c-4 -3 -7 -35 -7 -70 l0 -63 53 2 c50 1 50 2 10 5 -38 4
-43 7 -43 29 0 21 5 24 36 24 21 0 33 4 29 10 -3 6 -19 10 -36 10 -22 0 -29 5
-29 20 0 16 7 20 35 20 19 0 35 5 35 10 0 11 -73 14 -83 3z"/>
<path d="M1476 2238 c-3 -18 -7 -55 -11 -83 -6 -61 -30 -96 -76 -110 -30 -9
-25 -10 54 -13 48 -1 126 -1 175 0 69 2 81 5 57 12 -60 18 -78 50 -90 169 l-6
57 -49 0 c-48 0 -49 -1 -54 -32z"/>
<path d="M2502 2053 l-2 -222 -124 -3 -125 -3 122 -212 c67 -117 124 -213 127
-213 3 0 60 96 127 213 l122 212 -115 3 c-63 1 -115 4 -115 5 -1 1 -5 101 -8
222 l-7 220 -2 -222z"/>
<path d="M2866 2238 c-3 -18 -7 -55 -11 -82 -6 -54 -27 -94 -53 -102 -9 -3
-26 -9 -37 -14 -11 -5 170 -9 423 -9 l442 -1 0 102 0 102 -22 -44 c-49 -97
-195 -141 -473 -144 l-160 -1 -3 113 -3 112 -49 0 c-48 0 -49 -1 -54 -32z"/>
</g>
</svg>
